<?xml version="1.0" encoding="utf-8"?>
<!-- Generator: Adobe Illustrator 18.0.0, SVG Export Plug-In . SVG Version: 6.00 Build 0)  -->
<!DOCTYPE svg PUBLIC "-//W3C//DTD SVG 1.1//EN" "http://www.w3.org/Graphics/SVG/1.1/DTD/svg11.dtd">
<svg version="1.1" id="Layer_1" xmlns="http://www.w3.org/2000/svg" xmlns:xlink="http://www.w3.org/1999/xlink" x="0px" y="0px"
	 viewBox="-7.8 -12.8 28.2 27.5" enable-background="new -7.8 -12.8 28.2 27.5" xml:space="preserve">
<title>dropdown</title>
<desc>Created with Sketch.</desc>
<g id="Page-1">
	<g id="gifOS_misguifos" transform="translate(-1184.000000, -83.000000)">
		<g id="nav-bar" transform="translate(1.000000, 1.000000)">
			<g id="dropdown_tema_normal" transform="translate(1038.000000, 67.000000)">
				
					<g id="dropdown" transform="translate(150.000000, 18.000000) rotate(-270.000000) translate(-150.000000, -18.000000) translate(147.000000, 13.000000)">
					<path id="back-copy" fill="#110038" d="M3,3.6v0.8H2.2v0.8H1.5v0.8H0.7v0.8H0v-6.9h0.8v0.8h0.8v0.8h0.8v0.8H3v0.8h0.8v0.8H3z"
						/>
					<path id="Combined-Shape" fill="#FFFFFF" d="M0.7,6.7V5.9h0.8V5.2h0.8V4.4H3V3.6h1.5v0.8H3.8v0.8H3v0.8H2.2v0.8H1.5v0.8H0.7
						V6.7z"/>
				</g>
			</g>
		</g>
	</g>
</g>
<line fill="none" stroke="#000000" stroke-width="0.75" stroke-miterlimit="10" x1="-6.7" y1="-12.8" x2="-6.7" y2="14.8"/>
</svg>
